# File created by Blade
# Date/Time:  Tue Jan 27 20:12:02 2015
# Frame Rate: 120.000 fps
#------------------------------------------------------
:FULLY-SPECIFIED
:DEGREES
3026
root 8.947731 32.489393 -4.134309 4.586893 -19.535392 -6.114580
Spine 4.115930 17.096384 -2.518395
Head 29.682416 -8.216551 0.706470
LeftShoulder -17.888391 3.659606 29.603791
LeftArm -24.446195 -43.220252 -59.825712
LeftForeArm -13.865240 0.000000 94.853986
LeftHand 18.370005 -0.000000 4.169248
LeftHandThumb1 -26.253704 0.000000 33.147579
RightShoulder -19.132004 -24.172775 -21.652491
RightArm 8.153920 -39.789381 91.442892
RightForeArm -23.639306 0.000000 102.891655
RightHand 18.917652 -0.000000 -0.086631
RightHandThumb1 -24.326973 -0.000000 -32.862282
LeftUpLeg 3.691449 11.473238 -4.723427
LeftLeg -5.499225 -0.000000 0.000000
LeftFoot -17.453251 21.239250 -16.912428
LeftToeBase 24.155934 -0.000000 -0.000000
RightUpLeg 11.877653 -61.497878 -27.989258
RightLeg 77.427441 -0.000000 -0.000000
RightFoot 26.059659 -25.384344 18.539314
RightToeBase 18.446435 -0.000000 -0.000000
3027
root 8.947518 32.488781 -4.130543 4.575240 -19.518370 -6.105463
Spine 4.111002 17.095257 -2.539262
Head 29.680103 -8.191095 0.713932
LeftShoulder -17.884538 3.667476 29.606475
LeftArm -24.482119 -43.229657 -59.793988
LeftForeArm -13.901482 -0.000000 94.882567
LeftHand 18.368740 0.000000 4.172158
LeftHandThumb1 -26.253704 0.000000 33.147579
RightShoulder -19.117163 -24.183423 -21.655166
RightArm 8.144652 -39.769829 91.461605
RightForeArm -23.629828 -0.000000 102.888591
RightHand 18.939252 -0.000000 -0.075655
RightHandThumb1 -24.326973 -0.000000 -32.862282
LeftUpLeg 3.707384 11.479208 -4.725306
LeftLeg -5.499615 -0.000000 0.000000
LeftFoot -17.467559 21.188768 -16.960215
LeftToeBase 24.216108 -0.000000 -0.000000
RightUpLeg 11.788109 -61.397768 -27.828782
RightLeg 77.429854 -0.000000 -0.000000
RightFoot 25.893518 -25.498714 18.707945
RightToeBase 18.848077 -0.000000 -0.000000
3028
root 8.949619 32.486054 -4.127253 4.560137 -19.505417 -6.072835
Spine 4.107108 17.095752 -2.579332
Head 29.668825 -8.182591 0.705591
LeftShoulder -17.882287 3.669121 29.616299
LeftArm -24.533161 -43.222751 -59.753794
LeftForeArm -13.943034 -0.000000 94.909320
LeftHand 18.350559 -0.000000 4.239570
LeftHandThumb1 -26.253704 0.000000 33.147579
RightShoulder -19.126657 -24.188763 -21.674475
RightArm 8.147295 -39.778776 91.479248
RightForeArm -23.640771 -0.000000 102.877418
RightHand 18.975006 -0.000000 -0.091128
RightHandThumb1 -24.326973 -0.000000 -32.862282
LeftUpLeg 3.713127 11.478171 -4.759126
LeftLeg -5.490906 -0.000000 0.000000
LeftFoot -17.480035 21.164793 -16.977263
LeftToeBase 24.200613 -0.000000 -0.000000
RightUpLeg 11.743049 -61.327986 -27.774589
RightLeg 77.459010 -0.000000 -0.000000
RightFoot 25.800573 -25.542273 18.851168
RightToeBase 19.100937 -0.000000 -0.000000
3029
root 8.950202 32.484108 -4.122792 4.541333 -19.487295 -6.049514
Spine 4.105128 17.100377 -2.610218
Head 29.664779 -8.187546 0.698088
LeftShoulder -17.869399 3.666497 29.641210
LeftArm -24.594973 -43.215728 -59.719954
LeftForeArm -13.977541 -0.000000 94.925808
LeftHand 18.411852 -0.000000 4.305338
LeftHandThumb1 -26.253704 0.000000 33.147579
RightShoulder -19.131446 -24.178744 -21.685267
RightArm 8.113697 -39.777714 91.510375
RightForeArm -23.638660 -0.000000 102.879167
RightHand 18.958727 -0.000000 -0.088791
RightHandThumb1 -24.326973 -0.000000 -32.862282
LeftUpLeg 3.731926 11.478520 -4.779474
LeftLeg -5.489287 -0.000000 0.000000
LeftFoot -17.500444 21.132693 -17.011531
LeftToeBase 24.309428 -0.000000 -0.000000
RightUpLeg 11.771185 -61.293887 -27.784147
RightLeg 77.460795 -0.000000 -0.000000
RightFoot 25.827158 -25.541494 18.848055
RightToeBase 19.121548 -0.000000 -0.000000
3030
root 8.951378 32.482325 -4.119252 4.528645 -19.464847 -6.027527
Spine 4.101495 17.088120 -2.633747
Head 29.660788 -8.196071 0.674084
LeftShoulder -17.873381 3.704567 29.646120
LeftArm -24.613242 -43.227638 -59.715433
LeftForeArm -14.012229 -0.000000 94.942709
LeftHand 18.470297 -0.000000 4.230851
LeftHandThumb1 -26.253704 0.000000 33.147579
RightShoulder -19.152376 -24.201189 -21.687582
RightArm 8.150369 -39.787436 91.498791
RightForeArm -23.661897 -0.000000 102.870563
RightHand 18.965499 -0.000000 -0.031506
RightHandThumb1 -24.326973 -0.000000 -32.862282
LeftUpLeg 3.745320 11.467190 -4.795043
LeftLeg -5.492056 -0.000000 0.000000
LeftFoot -17.494012 21.094049 -17.025600
LeftToeBase 24.282473 -0.000000 -0.000000
RightUpLeg 11.771513 -61.267075 -27.747823
RightLeg 77.441879 -0.000000 -0.000000
RightFoot 25.878491 -25.567843 18.798669
RightToeBase 18.969594 -0.000000 -0.000000
3031
root 8.953424 32.480269 -4.115008 4.511559 -19.453485 -5.993990
Spine 4.099647 17.087360 -2.667230
Head 29.646920 -8.191162 0.651155
LeftShoulder -17.892264 3.731925 29.651249
LeftArm -24.609997 -43.224586 -59.718195
LeftForeArm -14.020901 -0.000000 94.945439
LeftHand 18.477179 0.000000 4.173903
LeftHandThumb1 -26.253704 0.000000 33.147579
RightShoulder -19.162047 -24.192028 -21.695410
RightArm 8.141593 -39.803439 91.510896
RightForeArm -23.679552 0.000000 102.866176
RightHand 18.978812 -0.000000 -0.056891
RightHandThumb1 -24.326973 -0.000000 -32.862282
LeftUpLeg 3.759986 11.448949 -4.826714
LeftLeg -5.490678 -0.000000 0.000000
LeftFoot -17.532122 21.048714 -17.098700
LeftToeBase 24.344802 -0.000000 -0.000000
RightUpLeg 11.742175 -61.231630 -27.701693
RightLeg 77.429448 -0.000000 -0.000000
RightFoot 25.942245 -25.610895 18.751444
RightToeBase 18.807660 -0.000000 -0.000000
3032
root 8.953936 32.479236 -4.111950 4.506486 -19.436115 -5.982831
Spine 4.089562 17.082244 -2.675192
Head 29.651616 -8.200586 0.611329
LeftShoulder -17.899576 3.748733 29.642502
LeftArm -24.629580 -43.228668 -59.690512
LeftForeArm -14.066448 -0.000000 94.963315
LeftHand 18.448769 -0.000000 4.220696
LeftHandThumb1 -26.253704 0.000000 33.147579
RightShoulder -19.160280 -24.199801 -21.702283
RightArm 8.136478 -39.795133 91.521256
RightForeArm -23.695397 -0.000000 102.868864
RightHand 18.975515 -0.000000 -0.046465
RightHandThumb1 -24.326973 -0.000000 -32.862282
LeftUpLeg 3.763211 11.441388 -4.836375
LeftLeg -5.477642 -0.000000 0.000000
LeftFoot -17.471474 21.031813 -16.988121
LeftToeBase 24.253924 -0.000000 -0.000000
RightUpLeg 11.766740 -61.213087 -27.648317
RightLeg 77.355511 -0.000000 -0.000000
RightFoot 25.899629 -25.653954 18.849735
RightToeBase 19.054229 -0.000000 -0.000000
3033
root 8.954532 32.478379 -4.108254 4.492948 -19.422179 -5.960708
Spine 4.080888 17.076730 -2.695835
Head 29.667847 -8.231598 0.582235
LeftShoulder -17.922804 3.799466 29.625208
LeftArm -24.584347 -43.231620 -59.712011
LeftForeArm -14.092231 -0.000000 94.979401
LeftHand 18.495439 -0.000000 4.266962
LeftHandThumb1 -26.253704 0.000000 33.147579
RightShoulder -19.150359 -24.195852 -21.713516
RightArm 8.116866 -39.781411 91.546414
RightForeArm -23.688077 -0.000000 102.857052
RightHand 19.023228 -0.000000 -0.024754
RightHandThumb1 -24.326973 -0.000000 -32.862282
LeftUpLeg 3.778592 11.416262 -4.849104
LeftLeg -5.488795 -0.000000 0.000000
LeftFoot -17.566309 21.002948 -17.183088
LeftToeBase 24.515996 -0.000000 -0.000000
RightUpLeg 11.812648 -61.212683 -27.641508
RightLeg 77.278088 -0.000000 -0.000000
RightFoot 25.940743 -25.661407 18.855231
RightToeBase 19.081029 -0.000000 -0.000000
3034
root 8.954712 32.476490 -4.104157 4.461380 -19.404280 -5.935551
Spine 4.099488 17.079518 -2.715890
Head 29.652917 -8.248396 0.567487
LeftShoulder -17.940299 3.809524 29.634603
LeftArm -24.576713 -43.204990 -59.722029
LeftForeArm -14.092821 -0.000000 94.995482
LeftHand 18.474424 0.000000 4.264104
LeftHandThumb1 -26.253704 0.000000 33.147579
RightShoulder -19.151286 -24.210764 -21.711076
RightArm 8.123001 -39.772333 91.550099
RightForeArm -23.694557 -0.000000 102.865258
RightHand 19.019550 -0.000000 -0.024552
RightHandThumb1 -24.326973 -0.000000 -32.862282
LeftUpLeg 3.804601 11.379549 -4.865285
LeftLeg -5.478152 -0.000000 0.000000
LeftFoot -17.585366 20.992732 -17.216282
LeftToeBase 24.564846 -0.000000 -0.000000
RightUpLeg 11.948794 -61.233598 -27.738732
RightLeg 77.210992 -0.000000 -0.000000
RightFoot 25.969698 -25.608453 18.829567
RightToeBase 19.139289 -0.000000 -0.000000
3035
root 8.954736 32.475080 -4.101671 4.456419 -19.409281 -5.919852
Spine 4.082825 17.102526 -2.735037
Head 29.670586 -8.261986 0.560306
LeftShoulder -17.944338 3.837387 29.638723
LeftArm -24.563583 -43.194573 -59.737659
LeftForeArm -14.092965 -0.000000 95.011489
LeftHand 18.399717 0.000000 4.180053
LeftHandThumb1 -26.253704 0.000000 33.147579
RightShoulder -19.141913 -24.244866 -21.707765
RightArm 8.142332 -39.762699 91.543452
RightForeArm -23.680695 -0.000000 102.871273
RightHand 19.021418 0.000000 -0.014730
RightHandThumb1 -24.326973 -0.000000 -32.862282
LeftUpLeg 3.811608 11.369743 -4.877576
LeftLeg -5.479065 -0.000000 0.000000
LeftFoot -17.606280 20.975472 -17.246782
LeftToeBase 24.572294 -0.000000 -0.000000
RightUpLeg 11.955854 -61.225168 -27.683767
RightLeg 77.121808 -0.000000 -0.000000
RightFoot 26.004938 -25.558209 18.756250
RightToeBase 19.062391 -0.000000 -0.000000
3036
root 8.954645 32.473832 -4.097822 4.433311 -19.396067 -5.894686
Spine 4.086057 17.106697 -2.760787
Head 29.671584 -8.222844 0.566048
LeftShoulder -17.959928 3.858822 29.650069
LeftArm -24.537714 -43.168293 -59.766139
LeftForeArm -14.123927 -0.000000 95.023793
LeftHand 18.409152 -0.000000 4.187662
LeftHandThumb1 -26.253704 0.000000 33.147579
RightShoulder -19.135217 -24.259041 -21.700199
RightArm 8.147208 -39.750787 91.544727
RightForeArm -23.678116 -0.000000 102.873652
RightHand 19.038165 -0.000000 -0.031407
RightHandThumb1 -24.326973 -0.000000 -32.862282
LeftUpLeg 3.831145 11.369641 -4.895753
LeftLeg -5.475462 -0.000000 0.000000
LeftFoot -17.623837 20.940942 -17.295136
LeftToeBase 24.689401 -0.000000 -0.000000
RightUpLeg 12.004986 -61.219215 -27.667410
RightLeg 77.027968 -0.000000 -0.000000
RightFoot 25.971990 -25.576179 18.789387
RightToeBase 18.950712 -0.000000 -0.000000
3037
root 8.954940 32.471924 -4.094387 4.415194 -19.389779 -5.868822
Spine 4.081105 17.115728 -2.779884
Head 29.694993 -8.222259 0.552136
LeftShoulder -17.962402 3.879613 29.656682
LeftArm -24.520788 -43.146663 -59.784110
LeftForeArm -14.158920 -0.000000 95.020797
LeftHand 18.385565 -0.000000 4.196959
LeftHandThumb1 -26.253704 0.000000 33.147579
RightShoulder -19.121630 -24.269280 -21.709074
RightArm 8.141143 -39.748055 91.555456
RightForeArm -23.691944 0.000000 102.879841
RightHand 18.992441 -0.000000 -0.067348
RightHandThumb1 -24.326973 -0.000000 -32.862282
LeftUpLeg 3.844896 11.341715 -4.918593
LeftLeg -5.469873 -0.000000 0.000000
LeftFoot -17.636922 20.942985 -17.318692
LeftToeBase 24.643703 -0.000000 -0.000000
RightUpLeg 12.011332 -61.203183 -27.605590
RightLeg 76.931958 -0.000000 -0.000000
RightFoot 25.892741 -25.635693 18.863104
RightToeBase 18.864306 -0.000000 -0.000000
3038
root 8.955388 32.469481 -4.090676 4.392345 -19.384794 -5.841435
Spine 4.081404 17.136816 -2.794160
Head 29.714787 -8.236132 0.531092
LeftShoulder -17.956311 3.874391 29.670441
LeftArm -24.514868 -43.117128 -59.796189
LeftForeArm -14.173946 0.000000 95.007007
LeftHand 18.385201 0.000000 4.226920
LeftHandThumb1 -26.253704 0.000000 33.147579
RightShoulder -19.121757 -24.262287 -21.726741
RightArm 8.111511 -39.739448 91.584334
RightForeArm -23.699232 -0.000000 102.884884
RightHand 19.002887 -0.000000 -0.008816
RightHandThumb1 -24.326973 -0.000000 -32.862282
LeftUpLeg 3.858284 11.337178 -4.943382
LeftLeg -5.456200 -0.000000 0.000000
LeftFoot -17.663977 20.930310 -17.351152
LeftToeBase 24.643118 -0.000000 -0.000000
RightUpLeg 12.032074 -61.191919 -27.569185
RightLeg 76.849711 -0.000000 -0.000000
RightFoot 25.739022 -25.705205 18.996489
RightToeBase 19.201237 -0.000000 -0.000000
